<svg xmlns="http://www.w3.org/2000/svg" version="1.1" xmlns:xlink="http://www.w3.org/1999/xlink" xmlns:svgjs="http://svgjs.com/svgjs" width="512" height="512" x="0" y="0" viewBox="0 0 682.667 682.667" style="enable-background:new 0 0 512 512" xml:space="preserve"><g><defs><clipPath id="a" clipPathUnits="userSpaceOnUse"><path d="M0 512h512V0H0Z" fill="#ffffff" data-original="#000000"></path></clipPath></defs><g clip-path="url(#a)" transform="matrix(1.33333 0 0 -1.33333 0 682.667)"><path d="M0 0c7.01-48.31 29.27-92.899 64.4-128.029 35.13-35.13 79.72-57.391 128.03-64.401M0 66.381C7.01 114.69 29.27 159.28 64.4 194.41c35.13 35.13 79.72 57.391 128.03 64.401M30.04 2.25c13.3-84.46 80.18-151.34 164.64-164.64M30.04 64.131c13.3 84.449 80.19 151.34 164.64 164.64m64.13 30.04c48.31-7.01 92.9-29.271 128.03-64.401 35.13-35.13 57.39-79.72 64.4-128.029m-194.68 162.39c84.46-13.3 151.34-80.18 164.64-164.64M256.56-162.39C341.02-149.09 407.9-82.21 421.2 2.25M258.81-192.43c48.31 7.01 92.9 29.271 128.03 64.401a230.856 230.856 0 0 1 23.938 28.088M428.9-70.31C440.11-48.352 447.662-24.66 451.24 0" style="stroke-width:15;stroke-linecap:round;stroke-linejoin:round;stroke-miterlimit:10;stroke-dasharray:none;stroke-opacity:1" transform="translate(30.38 222.81)" fill="none" stroke="#ffffff" stroke-width="15" stroke-linecap="round" stroke-linejoin="round" stroke-miterlimit="10" stroke-dasharray="none" stroke-opacity="" data-original="#000000"></path><path d="M0 0v33.26c0 49.15-39.98 89.13-89.13 89.13s-89.13-39.98-89.13-89.13V0m30 2.79v30.47c0 32.66 26.47 59.13 59.13 59.13 16.33 0 31.11-6.62 41.81-17.32C-36.62 64.37-30 49.59-30 33.26V2.79" style="stroke-width:15;stroke-linecap:round;stroke-linejoin:round;stroke-miterlimit:10;stroke-dasharray:none;stroke-opacity:1" transform="translate(345.13 270.41)" fill="none" stroke="#ffffff" stroke-width="15" stroke-linecap="round" stroke-linejoin="round" stroke-miterlimit="10" stroke-dasharray="none" stroke-opacity="" data-original="#000000"></path><path d="M0 0v25.518c0 16.568 13.432 30 30 30h153c16.568 0 30-13.432 30-30v-94c0-16.569-13.432-30-30-30H30c-16.568 0-30 13.431-30 30V-35" style="stroke-width:15;stroke-linecap:round;stroke-linejoin:round;stroke-miterlimit:10;stroke-dasharray:none;stroke-opacity:1" transform="translate(149.5 217.682)" fill="none" stroke="#ffffff" stroke-width="15" stroke-linecap="round" stroke-linejoin="round" stroke-miterlimit="10" stroke-dasharray="none" stroke-opacity="" data-original="#000000"></path><path d="M0 0c0 14.448-12.507 25.976-27.286 24.346-11.095-1.224-20.096-10.054-21.508-21.127-1.067-8.365 2.093-16.032 7.632-21.173 1.04-.965 1.662-2.298 1.662-3.717v-23.268c0-8.285 6.716-14.999 15-14.999 8.284 0 15 6.714 15 14.999v23.269c0 1.416.617 2.747 1.655 3.71C-3.021-13.486 0-7.098 0 0Z" style="stroke-width:15;stroke-linecap:round;stroke-linejoin:round;stroke-miterlimit:10;stroke-dasharray:none;stroke-opacity:1" transform="translate(280.5 213.919)" fill="none" stroke="#ffffff" stroke-width="15" stroke-linecap="round" stroke-linejoin="round" stroke-miterlimit="10" stroke-dasharray="none" stroke-opacity="" data-original="#000000"></path><path d="M0 0c0-19.606-15.894-35.5-35.5-35.5S-71-19.606-71 0s15.894 35.5 35.5 35.5S0 19.606 0 0Z" style="stroke-width:15;stroke-linecap:round;stroke-linejoin:round;stroke-miterlimit:10;stroke-dasharray:none;stroke-opacity:1" transform="translate(291.5 469)" fill="none" stroke="#ffffff" stroke-width="15" stroke-linecap="round" stroke-linejoin="round" stroke-miterlimit="10" stroke-dasharray="none" stroke-opacity="" data-original="#000000"></path><path d="M0 0c0-19.606-15.894-35.5-35.5-35.5S-71-19.606-71 0s15.894 35.5 35.5 35.5S0 19.606 0 0Z" style="stroke-width:15;stroke-linecap:round;stroke-linejoin:round;stroke-miterlimit:10;stroke-dasharray:none;stroke-opacity:1" transform="translate(291.5 43)" fill="none" stroke="#ffffff" stroke-width="15" stroke-linecap="round" stroke-linejoin="round" stroke-miterlimit="10" stroke-dasharray="none" stroke-opacity="" data-original="#000000"></path><path d="M0 0c19.606 0 35.5-15.894 35.5-35.5S19.606-71 0-71s-35.5 15.894-35.5 35.5S-19.606 0 0 0Z" style="stroke-width:15;stroke-linecap:round;stroke-linejoin:round;stroke-miterlimit:10;stroke-dasharray:none;stroke-opacity:1" transform="translate(43 291.5)" fill="none" stroke="#ffffff" stroke-width="15" stroke-linecap="round" stroke-linejoin="round" stroke-miterlimit="10" stroke-dasharray="none" stroke-opacity="" data-original="#000000"></path><path d="M0 0c19.606 0 35.5-15.894 35.5-35.5S19.606-71 0-71s-35.5 15.894-35.5 35.5S-19.606 0 0 0Z" style="stroke-width:15;stroke-linecap:round;stroke-linejoin:round;stroke-miterlimit:10;stroke-dasharray:none;stroke-opacity:1" transform="translate(469 291.5)" fill="none" stroke="#ffffff" stroke-width="15" stroke-linecap="round" stroke-linejoin="round" stroke-miterlimit="10" stroke-dasharray="none" stroke-opacity="" data-original="#000000"></path></g></g></svg>